<svg viewBox="0 0 350 350" xmlns="http://www.w3.org/2000/svg" xmlns:xlink="http://www.w3.org/1999/xlink"><clipPath id="a"><ellipse cx="175" cy="175.5" rx="175" ry="174.5"/></clipPath><circle cx="175" cy="175" fill="#ececeb" r="175"/><g clip-path="url(#a)" fill-rule="evenodd"><path d="m213.67 287.01 15.76 34.58 23.28 34.58-13.62-67.46z" fill="#738d56"/><path d="m213.67 287.01 39.04 69.16-25.54 17.25-21.61 9.87-60.35 36.41-34.57-81.46z" fill="#5a753d"/><path d="m262.64 80.66-9.93-1.52-6.18-6.22-30.07-11.55-77.79 11.55 66.5 229.1 12.44-27.57 17.77-25.77 27.3-12.82 32.55-10.94-23.86-61.66-16.6-66.57 1.31-9.4z" fill="#dfbda5"/><path d="m235.38 248.68 59.85-23.76-40.46-128.23-15.68-7.94-16.1-7.72-24.48-9.48-18.38 27.5-3.82-1.83-7.49 15.5 35.52 147.02z" fill="#dfbda5"/><path d="m169.05 112.84 35.29 146.9-5.06 5.44-13.52 1.75-9.35-11.61-6.72-16.86-4-44.28z" fill="#c3987b"/><path d="m185.76 266.93 19.4 35.09 30.22-53.34-31.04 11.06z" fill="#8b6651"/><path d="m254.89 96.71-8.36-23.78-58.31-29.29 10.29 27.91 24.48 9.48 16.1 7.72z" fill="#e8f078"/><path d="m188.22 43.64-83.08 27.45-22.01 58.11-7.75 16.05 23.34-8.1 23.35-7.89 23.14-8.1 23.84-8.32 11.08-13.79 18.38-27.5z" fill="#d9e354"/><path d="m169.05 112.84-23.13 8.1-23.85 8.32-23.35 7.89-23.34 8.1-6.78 113.5 92.7-129.86z" fill="#b8c745"/><path d="m224.01 129.73 12.23 32.96 21.85-39.16z" fill="#c3987b"/><path d="m216 131.23-29.03 21.46 24.57 3.14 22.48 26.3z" fill="#c3987b"/><path d="m242.53 179.64-2.17 8.8-6.34-6.31z" fill="#8b6651"/><path d="m216 131.23-27.28 11.98-1.75 9.48z" fill="#b8c745"/><path d="m224.01 129.73 31.3-11.34 2.78 5.14z" fill="#b8c745"/><path d="m216 131.23 18.02 50.9 8.51-2.49-18.52-49.91z" fill="#e8cab6"/><path d="m169.69 238.46 35.48 63.56 25.46 47.98-63.63 5.98-5.13-47.22z" fill="#d9e354"/><path d="m161.3 128.89-22.63 221.69 30.03-.58.99-111.54-.87-125.74z" fill="#e8f078"/><path d="m157.3 168.08-74.19 158.04-45.04-23.45 30.53-43.92 92.7-129.86z" fill="#d9e354"/><path d="m157.3 168.08-74.19 158.04 55.56 24.46 6.37-62.35 10.75-47.61z" fill="#b8c745"/><path d="m270.23 193.68-24.53 16.97-32.03 1 34.53 8.48z" fill="#99c26d"/><path d="m270.23 193.68-10.05 3.54-13.98 2.45-9.01 2.99-10.53 6-12.99 2.99 32.03-1z" fill="#5a753d"/><path d="m262.64 80.66-16.11-7.74-7.74 16.05 16.1 7.74z" fill="#35785d"/><path d="m239.09 88.75-16.1-7.72-7.75 16.05 16.1 7.72z" fill="#54b08b"/><path d="m215.74 96.65-16.09-7.73-7.75 16.05 16.09 7.73z" fill="#35785d"/><path d="m192.4 104.95-16.09-7.73-7.76 16.05 16.09 7.73z" fill="#54b08b"/><path d="m169.05 112.84-16.09-7.73-7.75 16.05 16.09 7.73z" fill="#35785d"/><path d="m145.91 120.94-16.09-7.73-7.75 16.05 16.09 7.73z" fill="#54b08b"/><path d="m122.57 128.83-16.1-7.73-7.75 16.05 16.1 7.73z" fill="#35785d"/><path d="m99.22 136.93-16.09-7.73-7.75 16.05 16.09 7.73z" fill="#54b08b"/><path d="m169.15 159.92-11.85 8.16-2.88 28.25 14.91-9.95z" fill="#5a753d"/><path d="m169.33 186.38-14.91 9.95-2.1 20.56 17.15-9.56z" fill="#99c26d"/><path d="m169.47 207.33-17.15 9.56-2.33 22.84 19.65-10.94z" fill="#5a753d"/><path d="m169.64 228.79-19.65 10.94-2.56 25.08 22.14-12.54z" fill="#99c26d"/><path d="m169.57 252.27-22.14 12.55-2.39 23.41 24.34-13.5z" fill="#5a753d"/><path d="m83.11 326.12-7.73 94.58 63.29-70.12z" fill="#738d56"/></g><circle cx="206.32" cy="161.04" r="6.35"/><circle cx="247.02" cy="147.09" r="6.35"/></svg>